<svg id="svg" xmlns="http://www.w3.org/2000/svg" xmlns:xlink="http://www.w3.org/1999/xlink" width="400" height="225" viewBox="0, 0, 400,225"><g id="svgg"><path id="path0" d="M194.711 52.151 C 194.621 52.421,193.395 52.618,191.210 52.714 C 189.360 52.794,187.847 52.984,187.847 53.136 C 187.847 53.287,187.222 53.517,186.458 53.646 C 185.694 53.775,185.069 54.008,185.069 54.163 C 185.069 54.319,184.640 54.618,184.115 54.828 C 183.589 55.038,182.691 55.521,182.118 55.900 C 181.545 56.279,180.842 56.697,180.556 56.828 C 180.269 56.959,179.910 57.273,179.757 57.526 C 179.604 57.779,179.269 57.986,179.013 57.986 C 178.756 57.986,178.457 58.220,178.347 58.507 C 178.237 58.793,177.928 59.028,177.661 59.028 C 177.034 59.028,175.531 61.306,174.627 63.629 C 173.891 65.520,172.737 68.165,172.224 69.136 C 172.062 69.444,171.746 70.623,171.524 71.755 L 171.119 73.814 168.896 73.584 C 167.673 73.458,166.476 73.199,166.236 73.010 C 165.995 72.820,164.951 72.569,163.915 72.453 C 162.880 72.336,161.872 72.080,161.676 71.884 C 161.057 71.265,141.618 71.414,140.404 72.046 C 139.857 72.332,139.089 72.566,138.698 72.567 C 138.306 72.568,137.834 72.721,137.649 72.907 C 137.463 73.092,136.143 73.339,134.715 73.455 C 133.287 73.571,131.806 73.795,131.424 73.954 C 131.042 74.113,130.495 74.341,130.208 74.461 C 129.922 74.582,129.297 74.906,128.819 75.182 C 128.342 75.458,127.355 75.687,126.626 75.689 C 125.741 75.693,124.909 75.993,124.122 76.594 C 123.473 77.088,122.314 77.577,121.546 77.680 C 120.778 77.784,119.971 78.082,119.754 78.345 C 119.305 78.885,118.521 77.676,117.710 75.192 C 117.464 74.438,116.904 73.435,116.467 72.964 C 116.030 72.492,115.388 71.557,115.041 70.885 C 114.694 70.213,113.902 68.875,113.281 67.912 C 112.661 66.949,112.153 65.993,112.153 65.788 C 112.153 65.308,109.981 63.194,109.488 63.194 C 109.282 63.194,108.921 62.963,108.687 62.681 C 108.085 61.956,106.289 61.111,105.349 61.111 C 104.912 61.111,104.467 60.968,104.359 60.794 C 104.031 60.264,101.225 59.028,100.324 59.018 C 99.855 59.013,99.029 58.549,98.466 57.976 C 97.414 56.904,89.931 56.304,89.931 57.292 C 89.931 57.483,89.617 57.639,89.233 57.639 C 88.849 57.639,88.267 57.951,87.940 58.333 C 87.613 58.715,86.938 59.028,86.439 59.028 C 85.892 59.028,85.131 59.437,84.520 60.060 C 83.963 60.627,83.337 61.096,83.129 61.101 C 81.621 61.140,73.785 70.354,72.077 74.096 C 70.038 78.566,70.018 88.095,72.041 91.183 C 72.616 92.061,72.743 93.276,72.277 93.461 C 71.900 93.610,69.444 97.122,69.444 97.513 C 69.444 97.790,68.712 99.501,68.079 100.703 C 65.961 104.723,65.207 119.116,66.852 124.130 C 67.897 127.315,72.369 130.895,75.316 130.906 C 75.811 130.908,76.999 131.274,77.956 131.720 C 78.914 132.166,80.789 132.731,82.123 132.977 C 83.457 133.222,85.017 133.624,85.590 133.871 C 86.163 134.117,88.029 134.656,89.737 135.067 C 91.445 135.479,93.320 136.065,93.904 136.369 C 94.488 136.674,96.450 137.215,98.264 137.571 C 100.078 137.927,102.734 138.461,104.167 138.757 C 105.599 139.054,107.474 139.427,108.333 139.588 C 109.951 139.890,111.750 140.333,114.787 141.176 C 115.759 141.446,117.355 141.667,118.335 141.667 C 119.314 141.667,120.628 141.894,121.256 142.173 C 121.978 142.494,124.685 142.816,128.646 143.054 C 132.083 143.260,137.630 143.593,140.972 143.795 C 149.051 144.283,186.861 143.975,189.757 143.398 C 190.903 143.170,192.782 142.699,193.933 142.353 C 195.361 141.922,198.724 141.545,204.523 141.165 C 209.197 140.858,213.720 140.444,214.575 140.244 C 215.430 140.044,218.008 139.741,220.304 139.570 C 225.798 139.161,230.135 138.605,230.860 138.217 C 231.182 138.045,232.569 137.749,233.944 137.558 C 236.406 137.217,238.790 136.094,241.870 133.826 C 242.460 133.392,243.940 132.856,245.160 132.635 C 246.380 132.414,247.623 132.102,247.923 131.941 C 248.222 131.781,250.306 131.478,252.553 131.269 C 256.701 130.883,258.651 130.537,261.458 129.687 C 262.318 129.427,264.740 128.955,266.840 128.638 C 268.941 128.320,271.207 127.854,271.875 127.601 C 272.543 127.349,275.285 126.966,277.967 126.751 C 280.650 126.535,283.775 126.130,284.912 125.851 C 286.049 125.571,289.010 125.260,291.493 125.160 C 296.482 124.959,303.513 124.101,304.861 123.529 C 305.339 123.327,307.057 123.034,308.681 122.879 C 312.561 122.507,314.527 122.116,315.799 121.465 C 316.372 121.171,317.421 120.842,318.131 120.732 C 319.665 120.496,325.414 117.961,326.832 116.896 C 331.073 113.711,333.101 111.151,336.853 104.246 C 338.360 101.470,338.362 95.027,336.855 93.106 C 336.310 92.410,335.602 91.293,335.281 90.625 C 334.118 88.196,331.806 86.327,329.531 85.973 C 328.681 85.841,327.822 85.599,327.621 85.434 C 327.421 85.269,324.976 85.081,322.188 85.015 C 319.145 84.944,316.925 84.740,316.633 84.507 C 316.325 84.260,313.422 84.050,308.735 83.936 C 304.020 83.820,301.184 83.614,300.939 83.370 C 300.728 83.159,299.733 82.986,298.727 82.986 C 297.722 82.986,296.230 82.769,295.411 82.503 C 294.399 82.175,291.211 81.953,285.434 81.808 C 280.545 81.686,276.797 81.449,276.597 81.250 C 276.119 80.772,246.446 80.776,245.968 81.254 C 245.761 81.461,241.978 81.695,236.784 81.822 C 231.926 81.942,227.787 82.167,227.587 82.324 C 227.386 82.480,226.589 82.710,225.816 82.833 L 224.409 83.058 224.200 76.338 C 223.924 67.430,222.928 63.955,220.054 61.863 C 219.703 61.608,218.993 61.025,218.476 60.566 C 216.892 59.164,216.707 59.028,216.384 59.028 C 216.015 59.028,212.725 56.579,212.558 56.179 C 212.494 56.027,212.162 55.903,211.819 55.903 C 211.476 55.903,211.002 55.668,210.764 55.382 C 210.526 55.095,210.128 54.861,209.878 54.861 C 209.629 54.861,209.216 54.666,208.960 54.427 C 208.079 53.602,206.070 52.820,204.254 52.593 C 203.251 52.468,202.344 52.224,202.237 52.051 C 201.932 51.558,194.877 51.652,194.711 52.151 M202.257 59.872 C 205.589 60.811,211.053 64.087,214.509 67.218 L 216.076 68.638 216.347 71.732 C 216.676 75.498,216.735 82.176,216.448 83.247 C 216.245 84.003,216.103 84.028,211.981 84.028 C 208.982 84.028,207.355 84.182,206.477 84.549 C 205.792 84.835,204.697 85.069,204.044 85.069 C 203.391 85.069,202.410 85.303,201.863 85.588 C 201.316 85.873,200.046 86.108,199.040 86.109 C 194.375 86.114,191.723 90.586,194.649 93.512 C 195.751 94.614,196.974 94.831,198.940 94.272 C 201.653 93.500,203.792 93.056,204.790 93.056 C 205.319 93.056,206.606 92.819,207.650 92.530 C 208.694 92.240,212.283 91.855,215.625 91.672 C 222.013 91.324,226.899 90.800,228.646 90.277 C 233.323 88.874,288.451 88.623,292.535 89.986 C 293.930 90.451,297.642 90.853,306.597 91.507 C 310.703 91.808,314.542 92.200,315.129 92.381 C 315.715 92.561,317.068 92.708,318.135 92.708 L 320.075 92.708 318.871 95.562 C 318.209 97.131,317.537 98.577,317.377 98.774 C 314.821 101.925,315.252 109.874,318.044 111.046 C 319.439 111.632,319.870 112.153,318.961 112.153 C 318.695 112.153,318.387 112.387,318.277 112.674 C 318.137 113.038,317.568 113.194,316.377 113.194 C 315.240 113.194,314.403 113.410,313.849 113.846 C 313.393 114.204,312.865 114.510,312.674 114.526 C 312.483 114.543,311.623 114.713,310.764 114.905 C 309.905 115.097,308.108 115.321,306.771 115.403 C 305.434 115.485,303.168 115.887,301.736 116.298 C 299.746 116.868,297.821 117.084,293.576 117.217 C 290.521 117.313,287.161 117.611,286.111 117.880 C 283.877 118.453,282.882 118.581,275.694 119.226 C 272.734 119.491,269.844 119.904,269.271 120.144 C 268.698 120.383,267.763 120.639,267.194 120.712 C 266.625 120.785,265.609 120.998,264.937 121.184 C 264.265 121.371,262.930 121.525,261.970 121.526 C 261.010 121.527,259.910 121.747,259.527 122.016 C 259.144 122.285,258.367 122.596,257.800 122.708 C 254.722 123.315,252.997 123.554,250.174 123.761 C 248.455 123.887,246.189 124.225,245.139 124.512 C 240.242 125.852,238.315 126.511,237.674 127.064 C 236.090 128.432,233.330 129.804,231.737 130.017 C 229.511 130.315,228.381 130.587,227.940 130.931 C 227.450 131.312,219.326 132.291,216.610 132.295 C 215.400 132.297,213.707 132.511,212.847 132.769 C 211.988 133.028,210.113 133.263,208.681 133.292 C 203.651 133.394,192.541 134.421,191.502 134.880 C 189.885 135.594,186.694 136.063,182.118 136.260 C 179.826 136.359,177.379 136.604,176.679 136.804 C 175.048 137.272,150.139 137.066,145.313 136.545 C 143.403 136.339,139.887 136.078,137.500 135.964 C 130.883 135.650,125.249 135.162,123.748 134.773 C 123.004 134.580,121.380 134.327,120.139 134.209 C 118.898 134.091,116.241 133.606,114.236 133.131 C 112.231 132.655,109.627 132.037,108.450 131.758 C 107.273 131.479,105.915 131.250,105.432 131.250 C 104.950 131.250,104.464 131.103,104.353 130.923 C 104.241 130.743,103.412 130.503,102.509 130.390 C 99.286 129.986,96.675 129.378,94.965 128.635 C 94.010 128.220,92.459 127.779,91.518 127.654 C 90.578 127.529,89.562 127.215,89.261 126.956 C 88.750 126.514,87.735 126.227,85.243 125.818 C 83.516 125.535,80.845 124.690,80.333 124.265 C 80.069 124.046,79.190 123.791,78.381 123.699 C 74.277 123.231,73.898 122.556,73.691 115.340 C 73.481 108.012,75.037 101.962,77.938 98.832 C 78.423 98.309,78.819 97.673,78.819 97.418 C 78.819 97.163,79.204 96.703,79.674 96.395 C 80.163 96.074,80.684 95.256,80.893 94.479 C 81.288 93.016,81.177 92.552,79.665 89.340 C 76.631 82.893,78.361 75.759,84.252 70.424 C 86.263 68.602,86.846 68.126,88.324 67.101 C 89.219 66.480,90.160 65.972,90.415 65.972 C 90.670 65.972,91.276 65.660,91.761 65.278 C 92.668 64.565,94.257 64.346,94.592 64.888 C 94.695 65.055,95.681 65.540,96.782 65.966 C 97.884 66.391,99.509 67.113,100.394 67.571 C 101.279 68.028,102.298 68.403,102.657 68.403 C 103.727 68.403,105.703 69.966,106.435 71.392 C 106.811 72.123,107.772 73.754,108.571 75.015 C 112.838 81.750,113.282 84.013,110.822 86.499 C 109.262 88.076,108.215 90.146,108.501 91.090 C 108.568 91.312,108.713 91.910,108.825 92.419 C 109.263 94.430,112.113 95.230,114.410 93.986 C 114.792 93.780,115.614 93.589,116.238 93.562 C 118.524 93.465,120.139 91.717,120.139 89.341 C 120.139 87.941,122.186 86.058,124.966 84.900 C 126.189 84.391,127.517 83.770,127.918 83.519 C 128.318 83.269,129.505 82.866,130.556 82.623 C 131.606 82.381,132.934 81.992,133.507 81.759 C 134.080 81.526,135.330 81.224,136.285 81.088 C 137.240 80.952,138.880 80.604,139.931 80.315 C 143.432 79.349,144.919 79.208,151.846 79.187 C 156.334 79.174,158.981 79.303,159.459 79.559 C 159.862 79.775,161.063 80.067,162.127 80.209 C 166.861 80.841,169.404 81.379,171.181 82.125 C 176.906 84.531,179.042 84.753,180.682 83.112 C 182.652 81.142,181.958 78.257,179.034 76.257 C 178.239 75.713,178.780 73.037,180.338 69.813 C 180.840 68.775,181.250 67.642,181.250 67.296 C 181.250 66.950,181.368 66.667,181.512 66.667 C 181.657 66.667,181.983 66.196,182.238 65.620 C 183.012 63.871,188.704 60.436,190.907 60.389 C 191.611 60.374,193.281 60.155,194.618 59.902 C 197.855 59.289,200.154 59.280,202.257 59.872 M182.813 97.280 C 179.025 98.550,178.127 110.574,181.694 112.267 C 186.644 114.616,189.931 111.298,189.931 103.952 C 189.931 101.325,187.345 97.236,185.672 97.217 C 185.436 97.215,184.931 97.149,184.549 97.072 C 184.167 96.994,183.385 97.088,182.813 97.280 M137.063 98.550 C 135.606 98.907,134.084 100.543,133.840 102.014 C 133.723 102.721,133.483 103.752,133.307 104.305 C 132.150 107.938,133.208 113.073,135.318 114.075 C 139.626 116.119,142.496 112.965,142.594 106.076 C 142.689 99.486,141.248 97.525,137.063 98.550 " stroke="none" fill="#000000" fill-rule="evenodd"></path></g></svg>